<svg width="86" height="66" viewBox="0 0 86 66" fill="none" xmlns="http://www.w3.org/2000/svg">
<path d="M14.445 44.5555C14.445 45.3531 13.7981 46 13.0004 46C12.2028 46 11.5559 45.3531 11.5559 44.5555C11.5559 44.4242 11.5723 44.3246 11.598 44.2079C13.2929 36.8321 13.2929 29.1679 11.598 21.7921C11.5741 21.684 11.5559 21.5826 11.5559 21.4445C11.5559 20.6469 12.2028 20 13.0004 20C13.7981 20 14.445 20.6469 14.445 21.4445C14.445 21.5758 14.4283 21.6757 14.4029 21.7921C12.7079 29.1679 12.7079 36.8321 14.4029 44.2079C14.4265 44.3165 14.445 44.4177 14.445 44.5555Z" fill="#F7D960"/>
<path d="M20.0287 42.2851C20.4275 42.976 20.1907 43.8594 19.5001 44.2582C18.8096 44.6571 17.9258 44.4202 17.527 43.7297C17.4612 43.616 17.4259 43.5214 17.3897 43.4075C15.1696 36.1724 11.3376 29.5352 6.18188 23.995C6.10726 23.9134 6.04044 23.8346 5.97154 23.7153C5.57271 23.0245 5.80956 22.141 6.50011 21.7422C7.19066 21.3433 8.07438 21.5802 8.47321 22.2707C8.53899 22.3844 8.57461 22.4792 8.61049 22.5929C10.8306 29.828 14.6627 36.4652 19.8184 42.0054C19.8935 42.0873 19.9598 42.1658 20.0287 42.2851Z" fill="#F7D960"/>
<path d="M23.7296 37.5271C24.4204 37.9259 24.657 38.8094 24.2582 39.5002C23.8594 40.191 22.9759 40.4276 22.2851 40.0287C22.1715 39.963 22.0935 39.899 22.0051 39.8184C16.4649 34.6627 9.8277 30.8306 2.59256 28.6105C2.487 28.577 2.39003 28.5422 2.27043 28.4733C1.57962 28.0744 1.34303 27.191 1.74186 26.5002C2.14069 25.8094 3.02416 25.5728 3.71496 25.9716C3.82858 26.0374 3.90683 26.1016 3.99471 26.1819C9.53494 31.3376 16.1721 35.1697 23.4072 37.3898C23.5136 37.4233 23.61 37.4582 23.7296 37.5271Z" fill="#F7D960"/>
<path d="M24.5555 31.5558C25.3531 31.5558 26 32.2026 26 33.0003C26 33.798 25.3531 34.4448 24.5555 34.4448C24.4242 34.4448 24.3246 34.4285 24.2079 34.4027C16.8321 32.7078 9.16794 32.7078 1.79214 34.4027C1.68399 34.4267 1.58259 34.4448 1.44453 34.4448C0.646869 34.4448 0 33.798 0 33.0003C0 32.2026 0.646869 31.5558 1.44453 31.5558C1.57583 31.5558 1.67567 31.5721 1.79214 31.5979C9.16794 33.2928 16.8321 33.2928 24.2079 31.5979C24.3165 31.5742 24.4177 31.5558 24.5555 31.5558Z" fill="#F7D960"/>
<path d="M22.2853 25.9719C22.9761 25.5731 23.8595 25.8099 24.2584 26.5005C24.6572 27.191 24.4204 28.0747 23.7298 28.4736C23.6162 28.5393 23.5216 28.5747 23.4077 28.6109C16.1725 30.8309 9.53538 34.663 3.99514 39.8187C3.91351 39.8933 3.83473 39.9601 3.71539 40.029C3.02458 40.4279 2.14112 40.191 1.74229 39.5005C1.34346 38.8099 1.58031 37.9262 2.27086 37.5274C2.38448 37.4616 2.47937 37.426 2.59299 37.3901C9.82813 35.17 16.4653 31.3379 22.0055 26.1822C22.0874 26.1071 22.1659 26.0408 22.2853 25.9719Z" fill="#F7D960"/>
<path d="M17.5271 22.2708C17.9259 21.58 18.8094 21.3434 19.5002 21.7422C20.191 22.1411 20.4276 23.0245 20.0287 23.7153C19.963 23.8289 19.899 23.9069 19.8184 23.9951C14.6627 29.5353 10.8306 36.1725 8.61054 43.4076C8.57726 43.5132 8.54216 43.6101 8.47326 43.7297C8.07443 44.4205 7.19097 44.6571 6.50017 44.2583C5.80936 43.8595 5.57276 42.976 5.97159 42.2852C6.03737 42.1716 6.10159 42.0933 6.18193 42.0055C11.3376 36.4652 15.1697 29.8281 17.3898 22.5929C17.4233 22.4868 17.4582 22.3904 17.5271 22.2708Z" fill="#F7D960"/>
<path d="M40.728 41L41.784 37.952H48.552L49.608 41H54.24L47.64 23.48H42.672L36.096 41H40.728ZM45.12 27.872L45.48 29.24L47.472 34.88H42.84L44.784 29.24L45.12 27.872ZM55.4779 23.48C55.4779 24.992 56.4379 26.048 58.1659 26.048C59.7979 26.048 60.8059 24.992 60.8059 23.48C60.8059 21.92 59.8219 20.816 58.1659 20.816C56.4379 20.816 55.4779 21.92 55.4779 23.48ZM55.9099 27.56V41H60.2779V27.56H55.9099ZM62.8138 23.48C62.8138 24.992 63.7738 26.048 65.5018 26.048C67.1338 26.048 68.1418 24.992 68.1418 23.48C68.1418 21.92 67.1578 20.816 65.5018 20.816C63.7738 20.816 62.8138 21.92 62.8138 23.48ZM63.2458 27.56V41H67.6138V27.56H63.2458ZM73.9669 41.288C76.2469 41.288 78.1189 40.088 78.9109 38.096C79.0069 40.28 80.2069 41.24 82.4149 41.24C83.5909 41.24 84.5509 40.856 85.0309 40.496V37.88C84.7669 37.976 84.4549 38.048 84.1429 38.048C83.3029 38.048 82.9669 37.616 82.9669 36.44V32.336C82.9669 29.096 80.7829 27.296 76.9669 27.296C73.8229 27.296 71.2549 28.712 70.0069 31.424L73.6789 32.864C74.2309 31.304 75.2869 30.464 76.8229 30.464C78.2869 30.464 78.9109 31.04 78.9109 31.808C78.9109 32.168 78.7669 32.432 78.5029 32.648C78.2389 32.864 77.5909 33.056 76.5829 33.272C74.0149 33.824 72.5269 34.184 71.5429 34.832C70.5109 35.504 69.7669 36.32 69.7669 37.928C69.7669 40.016 71.3749 41.288 73.9669 41.288ZM75.7909 38.288C74.6149 38.288 74.0389 37.808 74.0389 37.016C74.0389 36.08 74.8309 35.6 76.8469 35.192C78.0709 34.928 78.6949 34.664 79.0069 34.352V34.904C79.0069 36.44 77.9989 38.288 75.7909 38.288Z" fill="white"/>
</svg>
