<svg width="68" height="53" viewBox="0 0 68 53" fill="none" xmlns="http://www.w3.org/2000/svg">
<path d="M11.4216 35.2299C11.4216 35.8606 10.9101 36.3721 10.2794 36.3721C9.64868 36.3721 9.13721 35.8606 9.13721 35.2299C9.13721 35.1261 9.15016 35.0474 9.17051 34.9551C10.5107 29.123 10.5107 23.063 9.17051 17.231C9.1516 17.1455 9.13721 17.0653 9.13721 16.9561C9.13721 16.3254 9.64868 15.814 10.2794 15.814C10.9101 15.814 11.4216 16.3254 11.4216 16.9561C11.4216 17.06 11.4084 17.1389 11.3883 17.231C10.0481 23.063 10.0481 29.123 11.3883 34.9551C11.407 35.041 11.4216 35.121 11.4216 35.2299Z" fill="#F7D960"/>
<path d="M15.8365 33.4348C16.1518 33.981 15.9646 34.6795 15.4185 34.9949C14.8725 35.3103 14.1738 35.123 13.8584 34.577C13.8064 34.4871 13.7784 34.4123 13.7499 34.3223C11.9944 28.6014 8.96444 23.3535 4.88784 18.9728C4.82884 18.9083 4.776 18.846 4.72152 18.7516C4.40617 18.2054 4.59345 17.5068 5.13946 17.1915C5.68548 16.8761 6.38423 17.0634 6.69959 17.6094C6.7516 17.6993 6.77976 17.7743 6.80813 17.8641C8.56356 23.5849 11.5936 28.8329 15.6702 33.2136C15.7296 33.2783 15.782 33.3404 15.8365 33.4348Z" fill="#F7D960"/>
<path d="M18.763 29.6724C19.3092 29.9878 19.4963 30.6863 19.1809 31.2325C18.8656 31.7788 18.167 31.9658 17.6208 31.6505C17.531 31.5985 17.4693 31.5479 17.3994 31.4842C13.0188 27.4076 7.77079 24.3776 2.04998 22.6221C1.96651 22.5956 1.88983 22.5681 1.79527 22.5136C1.24905 22.1982 1.06197 21.4997 1.37733 20.9535C1.69268 20.4073 2.39124 20.2202 2.93746 20.5355C3.0273 20.5875 3.08917 20.6383 3.15865 20.7018C7.5393 24.7784 12.7873 27.8084 18.5081 29.5639C18.5922 29.5904 18.6684 29.6179 18.763 29.6724Z" fill="#F7D960"/>
<path d="M19.416 24.9512C20.0467 24.9512 20.5582 25.4626 20.5582 26.0934C20.5582 26.7241 20.0467 27.2355 19.416 27.2355C19.3121 27.2355 19.2334 27.2226 19.1411 27.2022C13.3091 25.8621 7.24907 25.8621 1.41704 27.2022C1.33152 27.2212 1.25135 27.2355 1.14219 27.2355C0.511478 27.2355 0 26.7241 0 26.0934C0 25.4626 0.511478 24.9512 1.14219 24.9512C1.24601 24.9512 1.32494 24.9641 1.41704 24.9845C7.24907 26.3246 13.3091 26.3246 19.1411 24.9845C19.227 24.9658 19.307 24.9512 19.416 24.9512Z" fill="#F7D960"/>
<path d="M17.6211 20.5357C18.1673 20.2204 18.8658 20.4077 19.1812 20.9537C19.4965 21.4997 19.3093 22.1984 18.7633 22.5138C18.6734 22.5658 18.5986 22.5938 18.5085 22.6223C12.7877 24.3778 7.53975 27.4078 3.1591 31.4844C3.09455 31.5434 3.03226 31.5962 2.9379 31.6507C2.39168 31.966 1.69313 31.7788 1.37777 31.2327C1.06242 30.6867 1.2497 29.988 1.79571 29.6726C1.88555 29.6206 1.96058 29.5924 2.05042 29.5641C7.77123 27.8086 13.0192 24.7786 17.3999 20.702C17.4646 20.6426 17.5267 20.5902 17.6211 20.5357Z" fill="#F7D960"/>
<path d="M13.8585 17.6095C14.1738 17.0633 14.8724 16.8762 15.4186 17.1915C15.9648 17.5069 16.1519 18.2054 15.8365 18.7517C15.7845 18.8415 15.7339 18.9032 15.6702 18.9729C11.5936 23.3535 8.5636 28.6015 6.80818 34.3223C6.78186 34.4058 6.75411 34.4824 6.69963 34.577C6.38428 35.1232 5.68573 35.3103 5.13951 34.9949C4.59329 34.6796 4.40621 33.981 4.72157 33.4348C4.77358 33.345 4.82436 33.2831 4.88788 33.2136C8.96448 28.833 11.9945 23.585 13.7499 17.8642C13.7764 17.7803 13.804 17.704 13.8585 17.6095Z" fill="#F7D960"/>
<path d="M32.2035 32L33.0385 29.59H38.3899L39.2249 32H42.8874L37.6688 18.147H33.7406L28.541 32H32.2035ZM35.6763 21.6197L35.9609 22.7014L37.536 27.1609H33.8735L35.4106 22.7014L35.6763 21.6197ZM43.8662 18.147C43.8662 19.3425 44.6253 20.1775 45.9916 20.1775C47.282 20.1775 48.079 19.3425 48.079 18.147C48.079 16.9135 47.301 16.0406 45.9916 16.0406C44.6253 16.0406 43.8662 16.9135 43.8662 18.147ZM44.2078 21.373V32H47.6615V21.373H44.2078ZM49.6667 18.147C49.6667 19.3425 50.4258 20.1775 51.7921 20.1775C53.0825 20.1775 53.8795 19.3425 53.8795 18.147C53.8795 16.9135 53.1015 16.0406 51.7921 16.0406C50.4258 16.0406 49.6667 16.9135 49.6667 18.147ZM50.0083 21.373V32H53.4621V21.373H50.0083ZM58.4854 32.2277C60.2882 32.2277 61.7684 31.2789 62.3946 29.7038C62.4705 31.4307 63.4194 32.1898 65.1652 32.1898C66.0951 32.1898 66.8542 31.8861 67.2337 31.6015V29.533C67.0249 29.6089 66.7782 29.6659 66.5315 29.6659C65.8674 29.6659 65.6017 29.3243 65.6017 28.3944V25.1494C65.6017 22.5875 63.8748 21.1643 60.8575 21.1643C58.3715 21.1643 56.341 22.2839 55.3542 24.4283L58.2577 25.5669C58.6942 24.3334 59.5291 23.6692 60.7436 23.6692C61.9012 23.6692 62.3946 24.1247 62.3946 24.7319C62.3946 25.0166 62.2808 25.2253 62.072 25.3961C61.8633 25.5669 61.3509 25.7187 60.5539 25.8895C58.5234 26.326 57.3468 26.6106 56.5688 27.123C55.7528 27.6543 55.1645 28.2995 55.1645 29.571C55.1645 31.222 56.4359 32.2277 58.4854 32.2277ZM59.9276 29.8556C58.9978 29.8556 58.5423 29.4761 58.5423 28.8499C58.5423 28.1098 59.1686 27.7302 60.7626 27.4076C61.7304 27.1989 62.2238 26.9901 62.4705 26.7434V27.1799C62.4705 28.3944 61.6735 29.8556 59.9276 29.8556Z" fill="white"/>
</svg>
