<svg width="219" height="219" viewBox="0 0 219 219" fill="none" xmlns="http://www.w3.org/2000/svg">
<path d="M109.269 109.27L137.55 3.72479" stroke="#F7D960" stroke-width="0.40867" stroke-miterlimit="10"/>
<path d="M109.269 109.27L163.903 14.6411" stroke="#F7D960" stroke-width="1.63468" stroke-miterlimit="10"/>
<path d="M109.27 109.268L186.534 32.0037" stroke="#F7D960" stroke-width="0.40867" stroke-miterlimit="10"/>
<path d="M109.27 109.269L203.899 54.6348" stroke="#F7D960" stroke-width="1.63468" stroke-miterlimit="10"/>
<path d="M109.268 109.268L214.813 80.9874" stroke="#F7D960" stroke-width="0.40867" stroke-miterlimit="10"/>
<path d="M109.269 109.269H218.537" stroke="#F7D960" stroke-width="1.63468" stroke-miterlimit="10"/>
<path d="M109.269 109.269L214.814 137.55" stroke="#F7D960" stroke-width="0.40867" stroke-miterlimit="10"/>
<path d="M109.269 109.269L203.898 163.904" stroke="#F7D960" stroke-width="1.63468" stroke-miterlimit="10"/>
<path d="M109.269 109.269L186.533 186.533" stroke="#F7D960" stroke-width="0.40867" stroke-miterlimit="10"/>
<path d="M109.269 109.269L163.903 203.898" stroke="#F7D960" stroke-width="1.63468" stroke-miterlimit="10"/>
<path d="M109.269 109.269L137.55 214.814" stroke="#F7D960" stroke-width="0.40867" stroke-miterlimit="10"/>
<path d="M109.269 109.269V218.538" stroke="#F7D960" stroke-width="1.63468" stroke-miterlimit="10"/>
<path d="M109.269 109.269L80.9883 214.814" stroke="#F7D960" stroke-width="0.40867" stroke-miterlimit="10"/>
<path d="M109.269 109.269L54.6343 203.898" stroke="#F7D960" stroke-width="1.63468" stroke-miterlimit="10"/>
<path d="M109.268 109.269L32.0042 186.533" stroke="#F7D960" stroke-width="0.40867" stroke-miterlimit="10"/>
<path d="M109.269 109.269L14.6396 163.904" stroke="#F7D960" stroke-width="1.63468" stroke-miterlimit="10"/>
<path d="M109.269 109.269L3.72388 137.55" stroke="#F7D960" stroke-width="0.40867" stroke-miterlimit="10"/>
<path d="M109.269 109.269H0" stroke="#F7D960" stroke-width="1.63468" stroke-miterlimit="10"/>
<path d="M109.269 109.268L3.72363 80.9872" stroke="#F7D960" stroke-width="0.40867" stroke-miterlimit="10"/>
<path d="M109.27 109.269L14.6407 54.6346" stroke="#F7D960" stroke-width="1.63468" stroke-miterlimit="10"/>
<path d="M109.267 109.268L32.0032 32.0037" stroke="#F7D960" stroke-width="0.40867" stroke-miterlimit="10"/>
<path d="M109.269 109.27L54.6345 14.6409" stroke="#F7D960" stroke-width="1.63468" stroke-miterlimit="10"/>
<path d="M109.27 109.27L80.9889 3.72455" stroke="#F7D960" stroke-width="0.40867" stroke-miterlimit="10"/>
<path d="M109.269 109.269V6.10352e-05" stroke="#F7D960" stroke-width="1.63468" stroke-miterlimit="10"/>
</svg>
