<svg width="304" height="304" viewBox="0 0 304 304" fill="none" xmlns="http://www.w3.org/2000/svg">
<path d="M200.632 167.771C219.588 180.266 249.16 192.585 291.648 210.278C249.959 192.92 220.702 180.738 198.623 175.892C193.16 174.694 188.965 180.706 192.019 185.392C204.444 204.44 226.679 227.17 258.719 259.357C227.233 227.779 204.829 205.689 186.04 193.069C181.429 189.974 175.356 194.013 176.433 199.462C180.821 221.673 192.554 250.877 209.532 292.134C209.532 292.134 209.532 292.134 209.529 292.134C192.204 250.132 179.82 220.832 167.044 202.01C163.902 197.384 156.734 198.931 155.73 204.433C151.674 226.671 151.612 258.362 151.527 303.519C151.613 257.496 151.671 225.459 147.462 203.149C146.418 197.612 139.19 196.162 136.088 200.864C123.592 219.82 111.273 249.392 93.58 291.88C110.938 250.191 123.12 220.934 127.963 198.856C129.161 193.393 123.15 189.198 118.464 192.252C99.4152 204.676 76.6858 226.912 44.4982 258.951C76.0758 227.465 98.1664 205.061 110.786 186.272C113.882 181.661 109.843 175.589 104.394 176.666C82.1827 181.053 52.9779 192.783 11.7212 209.764C11.7212 209.764 11.7212 209.764 11.7212 209.761C53.7238 192.436 83.0236 180.052 101.842 167.276C106.468 164.134 104.922 156.967 99.419 155.963C77.1814 151.907 45.4902 151.844 0.333404 151.759C46.3567 151.846 78.393 151.903 100.704 147.694C106.237 146.651 107.69 139.422 102.988 136.32C84.0323 123.824 54.4607 111.506 11.9726 93.8124C53.6616 111.171 82.9181 123.353 104.997 128.199C110.46 129.397 114.655 123.385 111.601 118.699C99.1763 99.6506 76.9405 76.9212 44.901 44.7336C76.3873 76.3112 98.791 98.4016 117.58 111.021C122.191 114.117 128.264 110.078 127.186 104.629C122.799 82.418 111.066 53.2132 94.0882 11.9565C94.0882 11.9565 94.0881 11.9565 94.0912 11.9566C111.416 53.9591 123.8 83.259 136.576 102.081C139.718 106.707 146.886 105.16 147.89 99.6573C151.946 77.4197 152.009 45.7287 152.093 0.571875C152.007 46.5951 151.949 78.6315 156.158 100.942C157.202 106.479 164.43 107.929 167.532 103.227C180.028 84.2706 192.347 54.699 210.04 12.2109C192.682 53.8999 180.5 83.1565 175.654 105.235C174.456 110.698 180.467 114.893 185.153 111.839C204.202 99.4148 226.931 77.179 259.119 45.1394C227.541 76.6257 205.451 99.0294 192.831 117.819C189.735 122.43 193.774 128.502 199.223 127.425C221.434 123.037 250.639 111.308 291.896 94.3265C291.896 94.3265 291.896 94.3266 291.896 94.3296C249.893 111.655 220.593 124.039 201.771 136.815C197.146 139.957 198.692 147.124 204.195 148.128C226.433 152.184 258.124 152.247 303.281 152.332C257.257 152.245 225.221 152.188 202.91 156.396C197.383 157.443 195.93 164.672 200.632 167.771Z" fill="#F7D960"/>
</svg>
