<svg width="25" height="24" viewBox="0 0 25 24" fill="none" xmlns="http://www.w3.org/2000/svg">
<path d="M23.4753 12.2364C23.4814 11.4607 24.1877 10.6761 23.9518 9.8945C23.6612 8.93197 22.3126 8.59465 21.7573 7.8155C21.357 7.25412 21.5058 6.56261 21.3271 5.93291C21.0846 5.07802 20.2662 4.67441 19.5326 4.29124C18.6924 3.85256 17.7896 3.48783 17.0156 2.93319C16.5603 2.60687 16.1879 2.18033 15.7266 1.86301C14.6912 1.1506 13.3096 0.997777 12.0872 1.00002C10.3202 1.00317 8.55579 1.40388 6.87322 1.92459C5.59089 2.32124 3.78629 2.72283 3.64224 4.29124C3.57324 5.04162 3.24289 5.44995 2.69634 5.95448C2.25833 6.35877 1.00994 7.16197 1.12591 7.86291C1.27378 8.75644 3.26806 8.96882 3.05658 9.97226C2.84848 10.9593 1.01736 11.1883 1.00185 12.2367C0.990616 12.9875 1.02882 13.7496 1.16254 14.5011C1.28547 15.1926 1.25041 15.9452 1.49289 16.6104C1.86797 17.6397 3.37975 18.0226 4.25216 18.5188C4.59892 18.7161 5.07513 18.9532 5.24211 19.344C5.35852 19.6166 5.30616 19.8982 5.27694 20.1821C5.21918 20.7466 5.33987 21.1421 5.80349 21.4961C6.37117 21.9296 7.04941 22.2656 7.70181 22.5487C9.10886 23.1593 10.64 23.4708 12.1713 23.4733C15.0205 23.4778 18.0993 22.3615 20.0102 20.1821C20.9042 19.1625 21.6008 17.9428 22.1456 16.7059C22.4447 16.027 22.6477 15.3247 22.8216 14.6053C23.0113 13.8204 23.4688 13.0549 23.4753 12.2364Z" stroke="#F7D960" stroke-width="0.674198" stroke-miterlimit="10"/>
<path d="M7.6044 6.49055L7.60441 6.49054C7.64016 6.44785 7.67945 6.39894 7.72181 6.34621C7.83725 6.20251 7.97541 6.03052 8.12644 5.87926C8.22955 5.776 8.3382 5.68289 8.44906 5.61549C8.55996 5.54808 8.67242 5.50678 8.78334 5.50618L8.78334 5.50618C8.89934 5.50552 8.98405 5.54533 9.04567 5.60992C9.10762 5.67486 9.14698 5.76562 9.17027 5.8678C9.21688 6.07226 9.19831 6.31847 9.17265 6.48202C9.15735 6.57951 9.13592 6.67752 9.11425 6.77658C9.09913 6.84568 9.08391 6.9153 9.07057 6.98561C9.0383 7.15576 9.01766 7.32787 9.03911 7.49894L9.03911 7.49895C9.0807 7.82741 9.31279 8.09111 9.59074 8.31226C9.72989 8.42296 9.88102 8.52338 10.0264 8.61619C10.0687 8.64317 10.1104 8.6695 10.1513 8.69524C10.2511 8.75816 10.3454 8.8176 10.4282 8.87474C10.4652 8.90026 10.5036 8.92623 10.5428 8.95273C10.7494 9.0924 10.9781 9.24696 11.1382 9.4299C11.2333 9.53849 11.3036 9.6564 11.3308 9.78631C11.358 9.916 11.3424 10.0586 11.2641 10.2172C11.1622 10.4241 10.9915 10.6087 10.8021 10.7773C10.6755 10.8901 10.5411 10.9951 10.4136 11.0947C10.3503 11.1442 10.2888 11.1923 10.2307 11.2394C10.1484 11.306 10.0497 11.4011 9.94124 11.5058L9.9345 11.5123C9.82774 11.6153 9.71156 11.7274 9.59171 11.8317C9.46931 11.9383 9.34342 12.0363 9.22027 12.1079C9.09698 12.1796 8.97741 12.2243 8.86745 12.2252C8.72936 12.2265 8.6401 12.1847 8.58545 12.1187C8.53047 12.0523 8.50886 11.9595 8.51042 11.8555C8.51356 11.6474 8.60949 11.401 8.70244 11.2537C8.75605 11.1687 8.82177 11.082 8.89131 10.9931C8.9067 10.9734 8.92227 10.9536 8.93794 10.9337C8.99297 10.8637 9.04914 10.7923 9.10221 10.7195C9.2385 10.5325 9.35587 10.3341 9.38345 10.1214C9.42339 9.81304 9.24958 9.56477 9.01597 9.36041C8.8425 9.20865 8.63419 9.07958 8.45276 8.96716C8.39005 8.9283 8.33055 8.89143 8.27681 8.85631C8.21061 8.81301 8.13148 8.76565 8.04537 8.71411C7.86947 8.60883 7.66442 8.4861 7.48078 8.34492C7.20716 8.13457 6.98647 7.88701 6.98272 7.60212C6.98018 7.40873 7.07704 7.20013 7.20465 7.00444C7.31802 6.83059 7.45464 6.6684 7.56473 6.53772C7.57839 6.5215 7.59165 6.50576 7.6044 6.49055ZM9.12509 6.77963C9.07313 7.01727 9.02032 7.2588 9.05026 7.49754L7.59579 6.48333C7.6313 6.44094 7.67043 6.39222 7.71267 6.33964C7.98596 5.99943 8.38951 5.49708 8.78328 5.49494C9.25904 5.49225 9.23522 6.15566 9.18375 6.48377C9.16844 6.58138 9.14684 6.68016 9.12509 6.77963Z" fill="#F7D960" stroke="#F7D960" stroke-width="0.0224733"/>
<path d="M15.5254 5.50578L15.5254 5.50578C15.4152 5.50605 15.303 5.54707 15.1922 5.61429C15.0814 5.68148 14.9726 5.77444 14.8693 5.87762C14.7155 6.03124 14.5748 6.20645 14.4582 6.35166C14.418 6.4017 14.3807 6.44817 14.3467 6.48898C14.3363 6.50153 14.3257 6.51422 14.315 6.52705C14.199 6.66584 14.0704 6.81985 13.963 6.98467C13.8457 7.16472 13.7545 7.35671 13.7328 7.55454C13.7012 7.84311 13.858 8.09079 14.0736 8.30606C14.2259 8.4582 14.406 8.59267 14.5674 8.71319C14.6346 8.76337 14.6985 8.81112 14.7559 8.85673C14.79 8.88386 14.8248 8.91111 14.8599 8.93861C15.0449 9.08361 15.2385 9.23534 15.3895 9.41142C15.5696 9.62133 15.6902 9.86689 15.6651 10.1786C15.6495 10.3707 15.5769 10.5522 15.4931 10.7289C15.4692 10.7794 15.4444 10.8294 15.4198 10.8791C15.3577 11.0042 15.2965 11.1278 15.2519 11.253C15.1894 11.4286 15.1564 11.6748 15.201 11.8756C15.2232 11.9758 15.2646 12.064 15.3304 12.1266C15.3959 12.1889 15.4866 12.2268 15.6095 12.2253C15.7148 12.224 15.8228 12.1812 15.9304 12.1121C16.038 12.043 16.1445 11.948 16.2467 11.8437C16.3489 11.7393 16.4465 11.6259 16.5364 11.5199C16.5472 11.5072 16.5579 11.4945 16.5685 11.482C16.6459 11.3907 16.7171 11.3066 16.7798 11.2415C16.8147 11.2052 16.8508 11.1683 16.8876 11.1308C17.0054 11.0106 17.1299 10.8834 17.2429 10.7481C17.3911 10.5706 17.5185 10.38 17.5838 10.1743C17.6767 9.88145 17.6105 9.6447 17.4696 9.43701C17.3358 9.23971 17.135 9.06915 16.9386 8.90233C16.9275 8.8929 16.9164 8.88349 16.9053 8.87409C16.8338 8.81324 16.7572 8.75195 16.6788 8.68925C16.5118 8.55572 16.3369 8.41585 16.1866 8.26049C15.9654 8.03171 15.7952 7.76728 15.7791 7.43543C15.7791 7.43543 15.7791 7.43543 15.7791 7.43542L15.5254 5.50578ZM15.5254 5.50578C15.6399 5.50545 15.7241 5.54499 15.7857 5.60911C15.8476 5.67357 15.8874 5.76361 15.9113 5.86516C15.9591 6.06838 15.9423 6.31385 15.9161 6.48003L15.9272 6.48178L15.5254 5.50578Z" fill="#F7D960" stroke="#F7D960" stroke-width="0.0224733"/>
<path d="M19.4714 15.2246C19.2741 14.8681 18.9208 14.5857 18.5241 14.4839C18.1142 14.3603 17.7086 14.463 17.3364 14.643M18.5241 14.4839C18.3909 15.2888 18.0753 16.0568 17.6585 16.7557C17.32 17.3231 17.0315 17.962 16.6308 18.4879C15.755 19.6372 14.0659 20.1055 12.6833 20.102C11.1282 20.0981 10.1245 19.1583 8.80153 18.4886C7.92237 18.0434 6.49015 17.6232 5.98765 16.7065C5.61392 16.0246 5.61594 15.2297 5.4829 14.4839H18.5241ZM6.66769 14.643C6.28205 14.4551 5.90922 14.3764 5.48268 14.4839C5.07389 14.5971 4.7087 14.8803 4.46509 15.2246L6.66769 14.643Z" stroke="#F7D960" stroke-width="0.674198" stroke-miterlimit="10" stroke-linecap="round"/>
</svg>
